<svg width="289" height="109" viewBox="0 0 289 109" fill="none" xmlns="http://www.w3.org/2000/svg">
<path d="M21.8341 20.4747C21.8341 20.4747 14.1486 22.9348 10.9027 24.8537C2.50395 29.8268 4.04487 38.6566 7.13435 46.4191C8.64476 50.219 10.6167 53.894 11.8296 57.7998C16.2273 71.9737 20.5831 86.0151 25.7475 99.9315C26.8803 102.982 28.097 108.905 35.3516 108.606C42.6099 108.307 46.0617 105.196 48.0794 104.458C50.0971 103.72 56.2074 99.36 53.0531 89.6143C49.8988 79.8687 48.2778 75.4821 47.9803 74.1726L47.5836 73.7184L51.9775 72.3862C51.9775 72.3862 54.6398 85.682 55.0632 87.7901C55.4865 89.8982 56.1845 98.8037 63.4276 100.545C70.6707 102.286 74.0348 100.204 77.5248 99.519C81.0148 98.8302 84.8709 94.9319 85.34 91.696C85.8092 88.46 84.8976 85.2089 84.8976 85.2051C85.6871 88.0248 93.0256 91.2872 95.5963 92.2258C99.8529 93.7813 104.59 95.159 109.091 95.7343C112.226 96.1355 122.12 96.6767 130.656 93.225C140.138 89.3948 147.98 82.5218 153.675 74.4111C153.675 74.4111 158.423 83.4528 161.353 85.8447C164.278 88.2405 169.122 93.0358 179.027 96.0825C188.933 99.133 205.082 96.3133 208.076 94.1258C211.066 91.9382 211.57 90.7384 211.57 90.7384C211.57 90.7384 212.016 95.7078 215.201 97.9105C218.386 100.113 226.663 102.967 227.555 103.084C228.451 103.202 232.029 104.034 234.894 102.301C237.758 100.567 239.211 99.1292 239.211 99.1292C239.211 99.1292 239.444 105.696 244.772 107.263C250.101 108.829 251.13 108.689 255.845 108.973C260.559 109.253 268.912 107.418 268.832 99.3487C268.756 91.2758 262.623 85.2808 261.063 76.5419C261.154 75.6222 267.428 73.0523 268.325 72.5641C272.215 70.4522 276.27 68.1473 278.97 64.5594C284.607 57.0694 284.752 44.4624 281.278 36.0944C279.42 31.6246 274.984 27.2721 270.815 24.8802C266.879 22.6245 262.249 21.6291 257.954 20.2817C253.453 18.87 249.792 17.3978 246.153 16.6067C242.514 15.8157 234.005 16.4894 230.683 21.4247C227.361 26.36 226.773 27.7944 224.477 38.8875L222.181 49.9806C222.181 49.9806 218.016 47.3653 213.687 47.1458C213.687 47.1458 219.191 46.8733 221.101 41.2719C224.691 30.7503 218.424 19.3658 209.495 14.0028C198.972 7.68233 186.93 7.53851 175.461 11.1227C170.327 12.7274 165.766 15.9331 162.382 20.0736C159.453 23.6577 157.641 27.9875 155.723 32.1507C155.723 32.1507 151.947 21.3642 142.705 13.9272C133.463 6.49393 125.11 6.14952 122.196 5.50611C122.151 5.49476 121.674 4.1436 121.609 4.03006C120.934 2.86815 119.889 1.95981 118.691 1.35425C116.998 0.495117 115.129 0.30588 113.267 0.112858C110.586 -0.159643 107.561 0.0106702 105.109 1.18772C103.042 2.18311 101.329 3.81812 100.215 5.80889C99.9826 6.22143 99.7766 6.6491 99.5974 7.08435C99.5974 7.08435 92.6976 9.0297 88.8605 11.8985C85.0235 14.7674 79.8095 18.1017 75.0342 27.8096L73.9738 19.4302C73.9738 19.4302 72.6579 9.51415 64.1447 9.77908C55.6315 10.0478 53.0836 11.4519 49.5059 12.2694C45.9282 13.0832 43.2965 16.357 42.7434 19.5324C42.1904 22.704 43.0714 29.9404 43.1592 30.5422C43.2469 31.1439 45.1006 43.6752 45.1006 43.6752L41.0766 45.0074L36.4691 28.1805C36.4691 28.1805 33.1699 20.0054 25.7055 19.9903L21.8456 20.4823L21.8341 20.4747Z" fill="#036536"/>
<path d="M137.026 52.9738C136.614 60.021 134.562 64.8579 131.919 68.1204C130.393 70.043 128.631 71.4434 126.926 72.4917V72.5107C126.137 72.9459 125.366 73.2487 124.6 73.5553C124.241 73.6991 123.875 73.8845 123.524 74.0019C122.586 74.3236 121.663 74.5658 120.778 74.7323C120.728 74.7437 120.667 74.7626 120.614 74.7739C117.73 75.3 115.213 75.1108 113.382 74.7815C113.291 74.7626 113.207 74.7512 113.111 74.7323C111.364 74.3917 110.304 73.9451 110.304 73.9451C109.423 73.6537 108.485 73.3055 107.524 72.8664C106.562 72.4312 105.582 71.9089 104.613 71.2693C103.263 70.4064 101.924 69.3542 100.666 68.0674C100.589 67.9841 100.471 67.8517 100.364 67.7381C94.3189 60.3162 93.0488 49.8779 94.1854 40.6242C94.2274 40.3896 94.2731 40.1549 94.3189 39.9203C94.46 39.2239 94.6202 38.5275 94.7995 37.8387C94.8834 37.551 94.9749 37.2596 95.0512 37.0363C95.5166 35.6889 96.0696 34.4778 96.6875 33.3954C97.9195 31.2986 99.3879 29.6674 100.914 28.3844C101.093 28.2103 101.207 28.1497 101.387 28.0362C102.268 27.336 103.145 26.7532 104.026 26.3444C108.138 24.0736 111.895 23.7822 112.307 23.7822C116.3 23.4302 120.469 24.1909 124.344 26.053C124.581 26.2271 124.813 26.2877 125.107 26.405C126.926 27.4534 128.688 28.7326 130.214 30.4244C134.738 35.0834 137.614 42.4863 137.026 52.9738Z" fill="#ED008C"/>
<path d="M105.332 23.6607L98.6523 24.1428L99.1382 30.7713L105.818 30.2892L105.332 23.6607Z" fill="#E6E6E6"/>
<path fill-rule="evenodd" clip-rule="evenodd" d="M98.3789 23.9064L105.569 23.3875L106.092 30.5255L98.9021 31.0444L98.3789 23.9064ZM98.9259 24.3792L99.3744 30.4981L105.545 30.0527L105.096 23.9338L98.9259 24.3792Z" fill="black"/>
<path d="M127.128 22.0862L120.448 22.5684L120.934 29.1969L127.614 28.7147L127.128 22.0862Z" fill="#E6E6E6"/>
<path fill-rule="evenodd" clip-rule="evenodd" d="M120.175 22.3319L127.364 21.813L127.888 28.9511L120.698 29.47L120.175 22.3319ZM120.722 22.8047L121.17 28.9236L127.341 28.4783L126.892 22.3594L120.722 22.8047Z" fill="black"/>
<path d="M112.893 23.1179L105.334 23.6635L105.884 31.1639L113.443 30.6184L112.893 23.1179Z" fill="#E6E6E6"/>
<path fill-rule="evenodd" clip-rule="evenodd" d="M105.061 23.427L113.129 22.8447L113.716 30.8547L105.648 31.437L105.061 23.427ZM105.608 23.8998L106.12 30.8907L113.169 30.3819L112.657 23.391L105.608 23.8998Z" fill="black"/>
<path d="M120.45 22.5726L112.892 23.1182L113.441 30.6186L121 30.0731L120.45 22.5726Z" fill="#E6E6E6"/>
<path fill-rule="evenodd" clip-rule="evenodd" d="M112.618 22.8817L120.687 22.2994L121.274 30.3094L113.205 30.8917L112.618 22.8817ZM113.165 23.3545L113.678 30.3454L120.727 29.8366L120.214 22.8457L113.165 23.3545Z" fill="black"/>
<path d="M125.868 69.9834L120.728 70.4315L121.179 75.5326L126.32 75.0845L125.868 69.9834Z" fill="#E6E6E6"/>
<path fill-rule="evenodd" clip-rule="evenodd" d="M120.451 70.1992L126.101 69.7068L126.598 75.3168L120.948 75.8093L120.451 70.1992ZM121.005 70.6638L121.412 75.256L126.044 74.8522L125.637 70.2601L121.005 70.6638Z" fill="black"/>
<path d="M115.571 70.885L110.431 71.3331L110.882 76.4342L116.023 75.9862L115.571 70.885Z" fill="#E6E6E6"/>
<path fill-rule="evenodd" clip-rule="evenodd" d="M110.154 71.1008L115.804 70.6084L116.301 76.2184L110.651 76.7109L110.154 71.1008ZM110.708 71.5654L111.115 76.1576L115.747 75.7539L115.34 71.1617L110.708 71.5654Z" fill="black"/>
<path d="M120.713 70.4364L115.572 70.8845L116.024 75.9856L121.165 75.5375L120.713 70.4364Z" fill="#E6E6E6"/>
<path fill-rule="evenodd" clip-rule="evenodd" d="M115.296 70.6522L120.946 70.1598L121.442 75.7698L115.793 76.2623L115.296 70.6522ZM115.85 71.1168L116.256 75.709L120.888 75.3052L120.482 70.7131L115.85 71.1168Z" fill="black"/>
<path d="M23.0351 25.0197C23.0351 25.0197 13.8582 28.5963 12.9504 29.0542C12.0426 29.5122 8.55267 30.5341 9.23922 35.4202C9.7732 39.239 11.562 42.6641 12.9466 46.218C16.2115 54.6201 20.3461 67.651 23.7064 76.0304C26.67 83.4182 27.4442 86.6693 29.1873 94.4621C29.1873 94.4621 30.3583 99.6926 32.0899 100.733C33.8215 101.774 35.9193 102.66 38.0553 101.945C40.1912 101.233 42.0296 100.661 45.9658 98.9697C49.9021 97.2779 48.5862 93.2207 47.9378 91.4343C47.2894 89.6479 44.0397 79.5275 43.3646 76.8668C42.6857 74.2062 40.8892 69.0665 42.9488 68.3663C45.0085 67.6661 51.3133 65.6262 51.3133 65.6262L54.3303 64.6497C54.3303 64.6497 56.5006 63.4424 57.2062 66.9773C57.9156 70.5085 59.899 80.4094 60.288 82.3585C60.6771 84.3076 61.3064 91.3473 63.1906 92.7627C65.0786 94.1782 65.1511 95.3477 70.6283 94.3031C76.1054 93.2548 80.4154 92.759 80.2705 88.3914C80.1217 84.0238 76.5631 71.3373 75.7621 67.4769C74.9611 63.6165 71.2118 41.173 69.8235 30.1253C68.4389 19.0777 68.9958 13.3854 61.3865 14.3467C53.7773 15.3081 52.4003 15.8341 51.1722 16.7463C49.944 17.6546 47.6479 18.9111 48.2658 23.116C48.8837 27.3208 50.6115 39.1065 50.6115 39.1065L51.2904 43.739C51.2904 43.739 52.0494 46.5246 48.281 47.7546C44.5165 48.9847 40.1225 50.4191 40.1225 50.4191C40.1225 50.4191 37.2276 51.8876 36.213 48.1596C35.1946 44.4316 31.7466 31.7906 31.7466 31.7906C31.7466 31.7906 31.0219 26.7531 27.8867 25.2165C24.7476 23.6799 23.0351 25.031 23.0351 25.031V25.0197Z" fill="#CFF406"/>
<path d="M154.625 47.8781C154.514 46.3377 154.446 44.8049 153.965 43.3251C153.965 43.3175 153.961 43.3099 153.961 43.3099C153.111 40.6909 152.451 38.1816 151.76 35.521C151.013 32.6294 149.922 29.8098 148.297 27.2891C143.816 20.3479 138.106 16.408 131.03 12.3962C129.97 11.7679 128.773 11.344 127.594 11.0148C127.338 10.9391 127.079 10.8634 126.82 10.7915C126.042 10.5757 125.256 10.3789 124.462 10.2048C124.169 10.1443 119.058 9.33057 119.058 9.33057C119.058 9.33057 118.356 3.85405 111.307 4.611C104.263 5.36795 104.968 10.7271 104.968 10.7271C103.031 11.0791 100.975 11.4841 99.0945 12.2448C87.4117 16.321 80.1876 26.5171 77.4872 37.9394C76.3125 42.9504 76.0188 48.2528 76.5489 53.3206C76.6634 53.9034 76.6634 54.4257 76.7816 54.9518C78.5742 62.9565 81.2556 72.2329 86.687 78.6897C96.127 89.9038 113.394 91.747 127.045 88.0455C138.67 84.7831 148.007 75.9268 152.233 64.917C153.057 62.8165 153.702 60.6024 154.114 58.3316C154.736 54.8875 154.884 51.3639 154.625 47.8781ZM113.543 9.11484C113.657 8.62661 114.145 8.32383 114.637 8.43358C115.129 8.54713 115.434 9.03157 115.324 9.5198C115.213 10.0042 114.721 10.3108 114.233 10.2011C113.741 10.0875 113.432 9.60307 113.543 9.11484ZM109.316 9.37977C109.431 8.89154 109.919 8.58497 110.411 8.69851C110.903 8.80827 111.208 9.29272 111.098 9.78095C110.983 10.2692 110.495 10.5757 110.003 10.4622C109.515 10.3524 109.206 9.86421 109.316 9.37977ZM137.026 52.9724C136.614 60.0196 134.562 64.8565 131.919 68.1189C130.394 70.0415 128.631 71.4419 126.926 72.4903V72.5092C126.137 72.9444 125.366 73.2472 124.6 73.5538C124.241 73.6976 123.875 73.8831 123.524 74.0004C122.586 74.3221 121.663 74.5643 120.778 74.7308C120.728 74.7422 120.667 74.7611 120.614 74.7725C117.73 75.2986 115.213 75.1093 113.382 74.78C113.291 74.7611 113.207 74.7498 113.112 74.7308C111.365 74.3902 110.304 73.9436 110.304 73.9436C109.423 73.6522 108.485 73.304 107.524 72.865C106.563 72.4297 105.582 71.9074 104.614 71.2678C103.263 70.4049 101.925 69.3527 100.666 68.0659C100.59 67.9827 100.471 67.8502 100.365 67.7366C94.3191 60.3148 93.049 49.8765 94.1856 40.6228C94.2276 40.3881 94.2734 40.1535 94.3191 39.9188C94.4603 39.2224 94.6205 38.526 94.7997 37.8372C94.8836 37.5496 94.9752 37.2581 95.0515 37.0349C95.5168 35.6875 96.0698 34.4764 96.6877 33.3939C97.9197 31.2972 99.3882 29.666 100.914 28.3829C101.093 28.2088 101.208 28.1483 101.387 28.0347C102.268 27.3346 103.145 26.7517 104.026 26.343C108.138 24.0721 111.895 23.7807 112.307 23.7807C116.3 23.4287 120.469 24.1894 124.344 26.0515C124.581 26.2256 124.813 26.2862 125.107 26.4035C126.926 27.4519 128.689 28.7311 130.214 30.4229C134.738 35.0819 137.614 42.4849 137.026 52.9724Z" fill="#CFF406"/>
<path d="M195.939 35.6246C195.565 35.4959 195.157 35.39 194.703 35.3143C191.495 34.7768 188.135 35.125 185.118 36.3399C177.86 39.2655 174.038 46.2749 174.21 53.8481C174.294 57.4701 174.942 61.13 176.574 64.3735C178.207 67.617 180.881 70.4177 184.26 71.7878C187.838 73.2374 191.988 73.1087 195.657 72.0754C197.232 71.6326 199.006 71.186 199.898 69.7176C200.249 69.1385 201.004 64.7141 200.291 64.4151C198.235 63.556 195.928 63.6317 193.711 63.3668C191.495 63.1018 189.115 62.326 187.986 60.4184C186.968 58.6926 187.25 56.5353 187.563 54.5597C187.937 52.2056 188.578 49.4843 190.767 48.5003C192.094 47.9023 193.635 48.1408 195.073 48.3943C202.072 49.6206 209.067 50.8468 216.066 52.0731C217.451 52.3153 218.927 52.6068 219.907 53.6059C220.853 54.571 221.124 55.9941 221.28 57.3339C223.206 74.0889 210.921 90.6282 193.891 92.9104C187.99 93.7014 181.884 92.5849 176.574 89.947C160.517 81.9763 155.211 63.5144 157.885 46.8994C158.911 40.5259 160.692 33.4484 164.602 28.1952C168.179 23.3848 173.115 19.5963 178.657 17.2649C182.04 15.8418 185.656 14.96 189.321 14.7102C193.879 14.4036 198.575 14.4415 202.705 16.5912C205.593 18.0256 208.545 19.9558 210.814 22.2418C213.808 25.2582 216.391 28.5964 217.272 32.8164C217.821 35.4543 217.447 38.7205 215.078 40.0376C213.866 40.7113 212.405 40.7075 211.016 40.6848C208.175 40.6432 203.827 41.3888 201.389 39.6781C199.223 38.1566 198.235 36.427 195.943 35.6284" fill="#CFF406"/>
<path d="M259.426 69.0531C264.358 69.3635 269.45 67.384 272.757 63.7166C277.353 58.6148 279.462 50.629 278.947 43.8808C278.608 39.4224 276.041 35.3424 272.581 32.5758C271.38 31.6637 270.464 30.6834 269.263 29.7751C267.993 28.6548 266.509 27.9546 265.014 27.1977C264.785 27.0955 264.579 27.0047 264.381 26.9214C263.584 26.5846 262.882 26.331 262.321 26.1417C261.867 26.0055 261.41 25.8617 260.956 25.7216C254.174 23.6325 247.423 21.3541 247.423 21.3541C241.198 19.4314 234.623 23.3335 233.33 29.6843L230.336 44.5431C227.631 59.0009 221.933 76.263 218.645 85.5811C217.333 89.3015 219.339 93.3549 223.108 94.5925C227.837 96.1405 235.904 99.2023 237.499 91.9129L240.199 79.5595L246.95 98.9601C247.587 100.788 249.231 102.086 251.172 102.287L258.988 103.097C262.863 103.506 265.682 99.4862 263.977 95.9891L254.67 71.0817C254.201 70.1507 254.617 69.1402 255.402 68.6746C255.502 68.6179 255.639 68.5725 255.795 68.5422C256.981 68.6557 258.252 68.8639 259.43 69.0569M260.635 48.7669C259.75 51.5638 258.152 52.6803 256.585 53.0512V53.0588C256.585 53.0588 254.872 53.6265 253.472 53.1118L252.637 52.8052C252.408 52.7258 252.252 52.6652 252.252 52.6652L249.185 51.5373C247.599 50.9545 246.779 49.2665 247.19 47.6921L248.422 43.1466C248.892 41.5154 250.535 40.5238 252.179 40.8757L255.528 41.557C255.528 41.557 262.756 42.0755 260.635 48.7669Z" fill="#CFF406"/>
<path d="M11.4279 77.8302C11.3173 79.2609 10.7757 80.2449 10.0777 80.9072C9.67336 81.297 9.20804 81.5809 8.75796 81.7966C8.54819 81.8875 8.34603 81.9518 8.14388 82.0124C8.04853 82.0426 7.95318 82.0805 7.85782 82.1032C7.6099 82.1675 7.36579 82.2167 7.13313 82.2508C7.12169 82.2508 7.10262 82.2584 7.09117 82.2584C6.32834 82.3643 5.66467 82.3265 5.18028 82.2584C5.15739 82.2546 5.13451 82.2508 5.10781 82.247C4.64629 82.1789 4.36404 82.0881 4.36404 82.0881C4.13138 82.0275 3.88346 81.9594 3.62791 81.8685C3.37236 81.7815 3.113 81.6755 2.85745 81.543C2.49892 81.369 2.14801 81.1532 1.81237 80.8921C1.7933 80.8769 1.76278 80.8467 1.73227 80.824C0.134133 79.3176 -0.201514 77.1982 0.0998051 75.3172C0.111248 75.268 0.12269 75.2225 0.134133 75.1733C0.172274 75.0333 0.21423 74.8895 0.26 74.7494C0.282885 74.6927 0.30577 74.6321 0.324841 74.5867C0.446894 74.3142 0.595647 74.0682 0.755842 73.8487C1.08005 73.421 1.46909 73.0917 1.87339 72.8306C1.91916 72.7965 1.94968 72.7814 1.99926 72.7587C2.23192 72.6149 2.46459 72.4975 2.69725 72.4143C3.78429 71.9525 4.77597 71.8958 4.88658 71.8958C5.94311 71.8238 7.0454 71.979 8.0676 72.3575C8.12863 72.3916 8.19347 72.4067 8.26975 72.4294C8.75034 72.6413 9.21566 72.9025 9.61997 73.2469C10.8138 74.1931 11.5766 75.6956 11.4203 77.8264L11.4279 77.8302Z" fill="#036536"/>
<path d="M288.241 77.8302C288.131 79.2609 287.589 80.2449 286.891 80.9072C286.487 81.297 286.022 81.5809 285.571 81.7966C285.362 81.8875 285.16 81.9518 284.957 82.0124C284.862 82.0426 284.767 82.0805 284.671 82.1032C284.423 82.1675 284.179 82.2167 283.947 82.2508C283.935 82.2508 283.916 82.2584 283.905 82.2584C283.142 82.3643 282.478 82.3265 281.994 82.2584C281.971 82.2546 281.948 82.2508 281.921 82.247C281.46 82.1789 281.178 82.0881 281.178 82.0881C280.945 82.0275 280.697 81.9594 280.441 81.8685C280.186 81.7815 279.926 81.6755 279.671 81.543C279.312 81.369 278.961 81.1532 278.626 80.8921C278.607 80.8769 278.576 80.8467 278.546 80.824C276.948 79.3176 276.612 77.1982 276.913 75.3172C276.925 75.268 276.936 75.2225 276.948 75.1733C276.986 75.0333 277.028 74.8895 277.073 74.7494C277.096 74.6927 277.119 74.6321 277.138 74.5867C277.26 74.3142 277.409 74.0682 277.569 73.8487C277.894 73.421 278.283 73.0917 278.687 72.8306C278.733 72.7965 278.763 72.7814 278.813 72.7587C279.045 72.6149 279.278 72.4975 279.511 72.4143C280.598 71.9525 281.589 71.8958 281.7 71.8958C282.757 71.8238 283.859 71.979 284.881 72.3575C284.942 72.3916 285.007 72.4067 285.083 72.4294C285.564 72.6413 286.029 72.9025 286.433 73.2469C287.627 74.1931 288.39 75.6956 288.234 77.8264L288.241 77.8302Z" fill="#036536"/>
</svg>
